<?xml version="1.0" encoding="UTF-8" standalone="no"?>
<!-- Created with Inkscape (http://www.inkscape.org/) -->

<svg
   width="10.641666in"
   height="3.3166666in"
   viewBox="0 0 10.641666 3.3166666"
   version="1.1"
   id="svg1"
   inkscape:version="1.3.2 (091e20e, 2023-11-25, custom)"
   xml:space="preserve"
   sodipodi:docname="Vignette-drawings.svg"
   xmlns:inkscape="http://www.inkscape.org/namespaces/inkscape"
   xmlns:sodipodi="http://sodipodi.sourceforge.net/DTD/sodipodi-0.dtd"
   xmlns="http://www.w3.org/2000/svg"
   xmlns:svg="http://www.w3.org/2000/svg"><sodipodi:namedview
     id="namedview1"
     pagecolor="#ffffff"
     bordercolor="#cccccc"
     borderopacity="1"
     inkscape:showpageshadow="0"
     inkscape:pageopacity="1"
     inkscape:pagecheckerboard="false"
     inkscape:deskcolor="#ffffff"
     inkscape:document-units="mm"
     showborder="true"
     inkscape:zoom="1.1544054"
     inkscape:cx="621.96522"
     inkscape:cy="651.41761"
     inkscape:window-width="1920"
     inkscape:window-height="1111"
     inkscape:window-x="-9"
     inkscape:window-y="-9"
     inkscape:window-maximized="1"
     inkscape:current-layer="layer1" /><defs
     id="defs1" /><g
     inkscape:label="Layer 1"
     inkscape:groupmode="layer"
     id="layer1"
     transform="translate(1.0650327,-3.8416667)"><path
       style="fill:none;stroke:#21a721;stroke-width:0.0194488;stroke-linecap:round;stroke-linejoin:round;stroke-opacity:1;-inkscape-stroke:none;paint-order:markers fill stroke"
       d="m 0.48543222,4.1351711 c 0.0037,-0.00123 0.024371,0.00835 0.039294,0.019024 0.00675,-0.017803 0.024814,-0.05978 0.057524,-0.107153 0.03271,-0.047373 0.05978,-0.081211 0.05978,-0.081211"
       id="path1"
       sodipodi:nodetypes="ccsc" /><path
       style="fill:none;stroke:#21a721;stroke-width:0.0194488;stroke-linecap:round;stroke-linejoin:round;stroke-opacity:1;-inkscape-stroke:none;paint-order:markers fill stroke"
       d="m 0.63218396,4.6519924 c 0.0037,-0.00123 0.024371,0.00835 0.039294,0.019024 0.00675,-0.017803 0.024814,-0.05978 0.057524,-0.107153 0.03271,-0.047373 0.05978,-0.081211 0.05978,-0.081211"
       id="path3"
       sodipodi:nodetypes="ccsc" /><path
       style="fill:none;stroke:#21a721;stroke-width:0.0194488;stroke-linecap:round;stroke-linejoin:round;stroke-opacity:1;-inkscape-stroke:none;paint-order:markers fill stroke"
       d="m 0.82997978,4.7859832 c 0.0037,-0.00123 0.024371,0.00835 0.039294,0.019024 0.00675,-0.017803 0.024814,-0.05978 0.057524,-0.107153 0.03271,-0.047373 0.05978,-0.081211 0.05978,-0.081211"
       id="path4"
       sodipodi:nodetypes="ccsc" /><path
       style="fill:none;stroke:#21a721;stroke-width:0.0194488;stroke-linecap:round;stroke-linejoin:round;stroke-opacity:1;-inkscape-stroke:none;paint-order:markers fill stroke"
       d="m 4.0648985,4.658373 c 0.0037,-0.00123 0.024371,0.00835 0.039294,0.019024 0.00675,-0.017803 0.024814,-0.05978 0.057524,-0.107153 0.03271,-0.047373 0.05978,-0.081211 0.05978,-0.081211"
       id="path5"
       sodipodi:nodetypes="ccsc" /><path
       style="fill:none;stroke:#21a721;stroke-width:0.0194488;stroke-linecap:round;stroke-linejoin:round;stroke-opacity:1;-inkscape-stroke:none;paint-order:markers fill stroke"
       d="m 4.5370563,4.658373 c 0.0037,-0.00123 0.024371,0.00835 0.039294,0.019024 0.00675,-0.017803 0.024814,-0.05978 0.057524,-0.107153 0.03271,-0.047373 0.05978,-0.081211 0.05978,-0.081211"
       id="path6"
       sodipodi:nodetypes="ccsc" /><path
       style="fill:none;stroke:#21a721;stroke-width:0.0194488;stroke-linecap:round;stroke-linejoin:round;stroke-opacity:1;-inkscape-stroke:none;paint-order:markers fill stroke"
       d="m 4.9773115,4.709417 c 0.0037,-0.00123 0.024371,0.00835 0.039294,0.019024 0.00675,-0.017803 0.024814,-0.05978 0.057524,-0.107153 0.03271,-0.047373 0.05978,-0.081211 0.05978,-0.081211"
       id="path7"
       sodipodi:nodetypes="ccsc" /><path
       style="fill:none;stroke:#21a721;stroke-width:0.0194488;stroke-linecap:round;stroke-linejoin:round;stroke-opacity:1;-inkscape-stroke:none;paint-order:markers fill stroke"
       d="m 5.4303278,4.709417 c 0.0037,-0.00123 0.024371,0.00835 0.039294,0.019024 0.00675,-0.017803 0.024814,-0.05978 0.057524,-0.107153 0.03271,-0.047373 0.05978,-0.081211 0.05978,-0.081211"
       id="path8"
       sodipodi:nodetypes="ccsc" /><path
       style="fill:none;stroke:#21a721;stroke-width:0.0194488;stroke-linecap:round;stroke-linejoin:round;stroke-opacity:1;-inkscape-stroke:none;paint-order:markers fill stroke"
       d="m 5.9918127,4.658373 c 0.0037,-0.00123 0.024371,0.00835 0.039294,0.019024 0.00675,-0.017803 0.024814,-0.05978 0.057524,-0.107153 0.03271,-0.047373 0.05978,-0.081211 0.05978,-0.081211"
       id="path9"
       sodipodi:nodetypes="ccsc" /><path
       style="fill:none;stroke:#21a721;stroke-width:0.0194488;stroke-linecap:round;stroke-linejoin:round;stroke-opacity:1;-inkscape-stroke:none;paint-order:markers fill stroke"
       d="m 6.4065458,4.6775145 c 0.0037,-0.00123 0.024371,0.00835 0.039294,0.019024 0.00675,-0.017803 0.024814,-0.05978 0.057524,-0.107153 0.03271,-0.047373 0.05978,-0.081211 0.05978,-0.081211"
       id="path10"
       sodipodi:nodetypes="ccsc" /><path
       style="fill:none;stroke:#21a721;stroke-width:0.0194488;stroke-linecap:round;stroke-linejoin:round;stroke-opacity:1;-inkscape-stroke:none;paint-order:markers fill stroke"
       d="m 6.9871723,4.6009484 c 0.0037,-0.00123 0.024371,0.00835 0.039294,0.019024 0.00675,-0.017803 0.024814,-0.05978 0.057524,-0.107153 0.03271,-0.047373 0.05978,-0.081211 0.05978,-0.081211"
       id="path11"
       sodipodi:nodetypes="ccsc" /><path
       style="fill:none;stroke:#21a721;stroke-width:0.0194488;stroke-linecap:round;stroke-linejoin:round;stroke-opacity:1;-inkscape-stroke:none;paint-order:markers fill stroke"
       d="m 7.5039936,4.5818068 c 0.0037,-0.00123 0.024371,0.00835 0.039294,0.019024 0.00675,-0.017803 0.024814,-0.05978 0.057524,-0.107153 0.03271,-0.047373 0.05978,-0.081211 0.05978,-0.081211"
       id="path2"
       sodipodi:nodetypes="ccsc" /><g
       id="g15"
       transform="rotate(28.995577,3.8817808,4.8355537)"><path
         style="fill:#000000;stroke:#000000;stroke-width:0.0194488;stroke-linecap:round;stroke-linejoin:round;stroke-opacity:1;-inkscape-stroke:none;paint-order:markers fill stroke"
         d="m 1.4042256,6.1195096 c 0,0 0.057425,0.025522 0.095708,0.063805 0.038283,0.038283 0.048594,0.057712 0.048594,0.057712"
         id="path14"
         sodipodi:nodetypes="csc" /><path
         style="fill:#000000;stroke:#000000;stroke-width:0.0194488;stroke-linecap:round;stroke-linejoin:round;stroke-opacity:1;-inkscape-stroke:none;paint-order:markers fill stroke"
         d="m 1.5003819,6.0775656 c 0,0 -0.014961,0.056858 -0.024964,0.1100661 -0.010004,0.053208 -0.00387,0.073908 -0.00387,0.073908"
         id="path15"
         sodipodi:nodetypes="ccc" /></g><g
       id="g17"
       transform="rotate(28.995577,4.0627783,5.4635405)"><path
         style="fill:#000000;stroke:#000000;stroke-width:0.0194488;stroke-linecap:round;stroke-linejoin:round;stroke-opacity:1;-inkscape-stroke:none;paint-order:markers fill stroke"
         d="m 1.4042256,6.1195096 c 0,0 0.057425,0.025522 0.095708,0.063805 0.038283,0.038283 0.048594,0.057712 0.048594,0.057712"
         id="path16"
         sodipodi:nodetypes="csc" /><path
         style="fill:#000000;stroke:#000000;stroke-width:0.0194488;stroke-linecap:round;stroke-linejoin:round;stroke-opacity:1;-inkscape-stroke:none;paint-order:markers fill stroke"
         d="m 1.5003819,6.0775656 c 0,0 -0.014961,0.056858 -0.024964,0.1100661 -0.010004,0.053208 -0.00387,0.073908 -0.00387,0.073908"
         id="path17"
         sodipodi:nodetypes="ccc" /></g><g
       id="g19"
       transform="rotate(28.995577,4.231507,6.3320392)"><path
         style="fill:#000000;stroke:#000000;stroke-width:0.0194488;stroke-linecap:round;stroke-linejoin:round;stroke-opacity:1;-inkscape-stroke:none;paint-order:markers fill stroke"
         d="m 1.4042256,6.1195096 c 0,0 0.057425,0.025522 0.095708,0.063805 0.038283,0.038283 0.048594,0.057712 0.048594,0.057712"
         id="path18"
         sodipodi:nodetypes="csc" /><path
         style="fill:#000000;stroke:#000000;stroke-width:0.0194488;stroke-linecap:round;stroke-linejoin:round;stroke-opacity:1;-inkscape-stroke:none;paint-order:markers fill stroke"
         d="m 1.5003819,6.0775656 c 0,0 -0.014961,0.056858 -0.024964,0.1100661 -0.010004,0.053208 -0.00387,0.073908 -0.00387,0.073908"
         id="path19"
         sodipodi:nodetypes="ccc" /></g><g
       id="g21"
       transform="rotate(28.995577,4.4546754,7.447069)"><path
         style="fill:#000000;stroke:#000000;stroke-width:0.0194488;stroke-linecap:round;stroke-linejoin:round;stroke-opacity:1;-inkscape-stroke:none;paint-order:markers fill stroke"
         d="m 1.4042256,6.1195096 c 0,0 0.057425,0.025522 0.095708,0.063805 0.038283,0.038283 0.048594,0.057712 0.048594,0.057712"
         id="path20"
         sodipodi:nodetypes="csc" /><path
         style="fill:#000000;stroke:#000000;stroke-width:0.0194488;stroke-linecap:round;stroke-linejoin:round;stroke-opacity:1;-inkscape-stroke:none;paint-order:markers fill stroke"
         d="m 1.5003819,6.0775656 c 0,0 -0.014961,0.056858 -0.024964,0.1100661 -0.010004,0.053208 -0.00387,0.073908 -0.00387,0.073908"
         id="path21"
         sodipodi:nodetypes="ccc" /></g><g
       id="g13"
       transform="rotate(28.995577,4.7061224,8.5454792)"><path
         style="fill:#000000;stroke:#000000;stroke-width:0.0194488;stroke-linecap:round;stroke-linejoin:round;stroke-opacity:1;-inkscape-stroke:none;paint-order:markers fill stroke"
         d="m 1.4042256,6.1195096 c 0,0 0.057425,0.025522 0.095708,0.063805 0.038283,0.038283 0.048594,0.057712 0.048594,0.057712"
         id="path12"
         sodipodi:nodetypes="csc" /><path
         style="fill:#000000;stroke:#000000;stroke-width:0.0194488;stroke-linecap:round;stroke-linejoin:round;stroke-opacity:1;-inkscape-stroke:none;paint-order:markers fill stroke"
         d="m 1.5003819,6.0775656 c 0,0 -0.014961,0.056858 -0.024964,0.1100661 -0.010004,0.053208 -0.00387,0.073908 -0.00387,0.073908"
         id="path13"
         sodipodi:nodetypes="ccc" /></g><g
       id="g23"
       transform="rotate(28.995577,5.2153252,9.5984535)"><path
         style="fill:#000000;stroke:#000000;stroke-width:0.0194488;stroke-linecap:round;stroke-linejoin:round;stroke-opacity:1;-inkscape-stroke:none;paint-order:markers fill stroke"
         d="m 1.4042256,6.1195096 c 0,0 0.057425,0.025522 0.095708,0.063805 0.038283,0.038283 0.048594,0.057712 0.048594,0.057712"
         id="path22"
         sodipodi:nodetypes="csc" /><path
         style="fill:#000000;stroke:#000000;stroke-width:0.0194488;stroke-linecap:round;stroke-linejoin:round;stroke-opacity:1;-inkscape-stroke:none;paint-order:markers fill stroke"
         d="m 1.5003819,6.0775656 c 0,0 -0.014961,0.056858 -0.024964,0.1100661 -0.010004,0.053208 -0.00387,0.073908 -0.00387,0.073908"
         id="path23"
         sodipodi:nodetypes="ccc" /></g></g></svg>
